HIERARCHY
ROOT Hips
{
	OFFSET 56.877701 -32.693596 43.373703
	CHANNELS 6 Xposition Yposition Zposition Zrotation Xrotation Yrotation
	JOINT Chest
	{
		OFFSET -0.779999 1.005800 5.403099
		CHANNELS 6 Xposition Yposition Zposition Zrotation Xrotation Yrotation
		JOINT Chest2
		{
			OFFSET 0.000000 0.000000 4.236801
			CHANNELS 6 Xposition Yposition Zposition Zrotation Xrotation Yrotation
			JOINT Neck
			{
				OFFSET 0.000000 0.000000 9.874401
				CHANNELS 6 Xposition Yposition Zposition Zrotation Xrotation Yrotation
				JOINT Head
				{
					OFFSET 0.000000 0.000002 2.173893
					CHANNELS 6 Xposition Yposition Zposition Zrotation Xrotation Yrotation
					End Site
					{
						OFFSET 0.000000 0.000000 6.508102
					}
				}
			}
			JOINT LeftCollar
			{
				OFFSET 2.681599 -0.377600 5.432499
				CHANNELS 6 Xposition Yposition Zposition Zrotation Xrotation Yrotation
				JOINT LeftShoulder
				{
					OFFSET 5.161499 0.000000 0.000000
					CHANNELS 6 Xposition Yposition Zposition Zrotation Xrotation Yrotation
					JOINT LeftElbow
					{
						OFFSET 0.000000 0.000000 -10.869099
						CHANNELS 6 Xposition Yposition Zposition Zrotation Xrotation Yrotation
						JOINT LeftWrist
						{
							OFFSET 0.000000 0.000000 -13.344799
							CHANNELS 6 Xposition Yposition Zposition Zrotation Xrotation Yrotation
							End Site
							{
								OFFSET 0.000000 0.000000 -2.173901
							}
						}
					}
				}
			}
			JOINT RightCollar
			{
				OFFSET -2.381901 -1.419600 6.136600
				CHANNELS 6 Xposition Yposition Zposition Zrotation Xrotation Yrotation
				JOINT RightShoulder
				{
					OFFSET -4.550499 0.000000 0.000000
					CHANNELS 6 Xposition Yposition Zposition Zrotation Xrotation Yrotation
					JOINT RightElbow
					{
						OFFSET 0.000000 0.000000 -11.106499
						CHANNELS 6 Xposition Yposition Zposition Zrotation Xrotation Yrotation
						JOINT RightWrist
						{
							OFFSET 0.000000 0.000000 -12.874298
							CHANNELS 6 Xposition Yposition Zposition Zrotation Xrotation Yrotation
							End Site
							{
								OFFSET 0.000000 0.000000 -2.173901
							}
						}
					}
				}
			}
		}
	}
	JOINT LeftHip
	{
		OFFSET 2.431900 0.469601 -2.489399
		CHANNELS 6 Xposition Yposition Zposition Zrotation Xrotation Yrotation
		JOINT LeftKnee
		{
			OFFSET 0.000000 -0.000004 -18.200201
			CHANNELS 6 Xposition Yposition Zposition Zrotation Xrotation Yrotation
			JOINT LeftAnkle
			{
				OFFSET 0.000000 0.000000 -16.279900
				CHANNELS 6 Xposition Yposition Zposition Zrotation Xrotation Yrotation
				End Site
				{
					OFFSET 0.000000 -8.394100 0.000000
				}
			}
		}
	}
	JOINT RightHip
	{
		OFFSET -1.987999 -0.073502 -2.713001
		CHANNELS 6 Xposition Yposition Zposition Zrotation Xrotation Yrotation
		JOINT RightKnee
		{
			OFFSET 0.000000 -0.000004 -19.547802
			CHANNELS 6 Xposition Yposition Zposition Zrotation Xrotation Yrotation
			JOINT RightAnkle
			{
				OFFSET 0.000000 0.000000 -14.881199
				CHANNELS 6 Xposition Yposition Zposition Zrotation Xrotation Yrotation
				End Site
				{
					OFFSET 0.000000 -7.922699 0.000000
				}
			}
		}
	}
}
MOTION
Frames: 5
Frame Time: 0.041667
54.363895 -40.719894 44.495602 1779.881072 15.808512 4.495873 -0.780009 1.005802 5.403089 20.381592 -15.369614 -5.625176 0.000002 0.000004 4.236799 -16.464635 -2.239538 -1.586434 0.000004 0.000010 9.874398 -43.276458 7.002733 17.862401 -0.000008 0.000005 2.173901 -3.083767 0.235123 -4.839677 2.681595 -0.377597 5.432500 11.463346 -7.109708 -16.616535 5.161516 -0.000005 0.000006 152.785540 -110.589888 59.859477 0.000008 0.000001 -10.869091 45.850657 -1.382258 -4.029851 -0.000006 0.000000 -13.344807 199.911168 3.856118 -20.837782 -2.381911 -1.419598 6.136593 -9.261208 -29.188236 43.324993 -4.550507 -0.000003 0.000014 -800.874159 -489.161756 -371.601933 0.000004 -0.000007 -11.106496 -105.954860 -61.421350 -109.308756 0.000001 0.000001 -12.874296 -773.249432 -3.146993 -10.443119 2.431889 0.469599 -2.489404 5.838358 -17.074676 -0.381929 0.000006 0.000005 -18.200199 20.043624 20.381206 9.167238 -0.000002 -0.000001 -16.279898 -15.824741 28.675648 -6.210337 -1.988012 -0.073503 -2.713002 -153.781409 -5.606472 -122.893504 -0.000016 0.000000 -19.547802 -694.783617 133.874713 39.481031 0.000001 0.000008 -14.881189 496.369573 158.094687 159.211628
54.396404 -40.710194 44.479202 1779.296736 15.977593 4.309217 -0.779995 1.005803 5.403100 21.039744 -15.371969 -5.231763 -0.000000 -0.000008 4.236807 -16.584601 -2.259840 -1.597295 -0.000005 -0.000010 9.874398 -43.424618 6.960062 17.993467 -0.000004 -0.000003 2.173893 -3.031085 0.204206 -4.843192 2.681596 -0.377605 5.432496 11.821631 -7.372878 -16.411819 5.161510 -0.000001 0.000005 151.827373 -110.830864 59.173877 -0.000004 0.000004 -10.869099 45.893537 -1.339797 -4.081911 0.000015 0.000005 -13.344786 199.770233 3.880632 -20.931062 -2.381908 -1.419612 6.136589 -9.326867 -29.360302 43.248201 -4.550511 -0.000003 0.000016 -801.120483 -489.279508 -371.966119 -0.000000 -0.000015 -11.106493 -106.628795 -61.606046 -109.852214 -0.000004 0.000013 -12.874298 -773.442972 -3.073658 -10.390805 2.431902 0.469604 -2.489398 6.263321 -17.274640 -0.053525 -0.000003 -0.000011 -18.200199 19.926478 20.400735 9.197568 0.000003 0.000001 -16.279896 -15.675752 28.584027 -6.111282 -1.988000 -0.073496 -2.713008 -153.413289 -5.565388 -123.356563 -0.000005 -0.000002 -19.547791 -694.959235 134.662207 39.234133 0.000004 0.000008 -14.881195 495.917141 158.227138 158.914692
54.430401 -40.701492 44.462200 1778.760812 16.178246 4.102481 -0.780005 1.005798 5.403091 21.652070 -15.405560 -4.800815 0.000001 -0.000002 4.236796 -16.707467 -2.266908 -1.596724 0.000003 0.000004 9.874390 -43.450477 6.972474 18.005910 0.000003 -0.000004 2.173893 -3.074167 0.173582 -4.805718 2.681595 -0.377597 5.432500 12.223631 -7.637177 -16.279517 5.161520 0.000005 -0.000002 150.927605 -111.002342 58.592600 0.000006 0.000001 -10.869103 45.820683 -1.300856 -4.124813 0.000004 0.000003 -13.344792 199.738842 3.882323 -20.998780 -2.381906 -1.419605 6.136589 -9.361462 -29.781394 43.259929 -4.550505 -0.000013 0.000011 -801.698044 -489.298141 -372.795140 -0.000002 -0.000002 -11.106487 -107.187764 -61.800467 -110.172884 -0.000008 0.000005 -12.874300 -773.712901 -2.972858 -10.314912 2.431898 0.469601 -2.489393 6.687431 -17.502320 0.288412 -0.000004 -0.000010 -18.200195 19.849686 20.428957 9.227419 -0.000000 -0.000005 -16.279902 -15.583160 28.528022 -6.078355 -1.988011 -0.073501 -2.713002 -153.073173 -5.490737 -123.792630 -0.000010 -0.000005 -19.547792 -695.233863 135.547904 39.150364 0.000003 0.000008 -14.881199 495.468643 158.396431 158.375025
54.462399 -40.689995 44.445206 1778.289365 16.448593 3.933431 -0.779995 1.005801 5.403088 22.190870 -15.517312 -4.391436 0.000004 -0.000000 4.236796 -16.833541 -2.277126 -1.588737 0.000008 0.000000 9.874398 -43.446345 7.001171 17.984636 0.000010 -0.000000 2.173886 -3.130875 0.158266 -4.763776 2.681601 -0.377593 5.432503 12.640319 -7.856523 -16.207854 5.161508 -0.000001 -0.000005 150.258042 -111.145018 58.233202 0.000002 0.000001 -10.869103 45.490897 -1.275483 -4.139107 0.000003 0.000003 -13.344803 200.226599 3.784145 -20.997934 -2.381903 -1.419598 6.136597 -9.386407 -30.415222 43.337250 -4.550501 -0.000004 0.000021 -802.341611 -489.214430 -373.855896 0.000008 -0.000008 -11.106499 -107.463819 -61.938976 -110.226467 -0.000001 0.000004 -12.874298 -773.969333 -2.869555 -10.250799 2.431904 0.469600 -2.489406 7.072066 -17.807591 0.580406 -0.000000 -0.000008 -18.200203 19.815873 20.472288 9.258369 0.000004 -0.000003 -16.279900 -15.536046 28.513181 -6.138068 -1.987999 -0.073497 -2.713013 -152.759476 -5.313069 -124.182292 -0.000003 0.000001 -19.547792 -695.444889 136.404547 39.085836 0.000002 0.000005 -14.881198 495.059815 158.554591 157.836000
54.493500 -40.674297 44.427799 1777.837589 16.800600 3.818457 -0.779995 1.005799 5.403101 22.701093 -15.715212 -4.015318 0.000000 0.000001 4.236801 -16.971268 -2.299208 -1.576082 -0.000002 -0.000010 9.874398 -43.411613 7.044357 17.939413 0.000012 0.000012 2.173891 -3.171382 0.161864 -4.742418 2.681597 -0.377604 5.432494 13.033729 -8.002834 -16.249698 5.161505 0.000003 0.000002 149.932747 -111.121345 58.156090 0.000004 0.000003 -10.869089 45.179669 -1.296198 -4.096213 0.000004 0.000007 -13.344797 200.751240 3.682179 -20.985685 -2.381904 -1.419608 6.136600 -9.410100 -31.256400 43.470070 -4.550502 -0.000001 0.000010 -803.025942 -489.041818 -375.140982 -0.000002 -0.000002 -11.106491 -107.652859 -62.104082 -110.176812 0.000004 0.000024 -12.874301 -774.342808 -2.813399 -10.209879 2.431899 0.469598 -2.489391 7.454211 -18.206802 0.821438 -0.000002 -0.000004 -18.200201 19.797686 20.531180 9.296337 0.000004 0.000000 -16.279902 -15.508595 28.509613 -6.248251 -1.987998 -0.073497 -2.712998 -152.426395 -5.027640 -124.548377 -0.000001 -0.000010 -19.547794 -695.459205 137.118028 38.955383 -0.000001 0.000005 -14.881195 494.748304 158.637564 157.428894
